<svg id="Layer_1" data-name="Layer 1" xmlns="http://www.w3.org/2000/svg" viewBox="0 0 24.28 9.5"><defs><style>.cls-1{fill:#97d2b4;}.cls-2{fill:#7475b7;}</style></defs><title>logo</title><path class="cls-1" d="M75.19,206.5l3.12-3.12.18.18-3,3,3,3-.18.18-3.11-3.07Z" transform="translate(-74.82 -201.82)"/><path class="cls-1" d="M78.3,210.13A.37.37,0,0,1,78,210l-3.11-3.07a.37.37,0,0,1-.11-.27v-.18a.37.37,0,0,1,.11-.27L78,203.11a.37.37,0,0,1,.27-.11h0a.37.37,0,0,1,.27.11l.18.18a.37.37,0,0,1,0,.53L76,206.58l2.75,2.72a.37.37,0,0,1,0,.53l-.18.18A.37.37,0,0,1,78.3,210.13Z" transform="translate(-74.82 -201.82)"/><path class="cls-1" d="M80.23,210.65h-.12l-.1,0h0l1.62-8h.24Z" transform="translate(-74.82 -201.82)"/><path class="cls-1" d="M80.23,211h0l-.15,0a.37.37,0,0,1-.21-.05.41.41,0,0,1-.22-.42l1.62-8a.38.38,0,0,1,.4-.3l.1,0h0a.44.44,0,0,1,.43.39l-1.63,8.09A.38.38,0,0,1,80.23,211Z" transform="translate(-74.82 -201.82)"/><path class="cls-2" d="M87.53,202.23h.32l-2.22,3.58,0,0,0,0,2.54,5h-.29L85.49,206l-1.27,2.08v2.8H84v-8.7h.25v5.45Z" transform="translate(-74.82 -201.82)"/><path class="cls-2" d="M84.22,211.29H84a.38.38,0,0,1-.37-.37v-8.7a.38.38,0,0,1,.38-.37h.25a.38.38,0,0,1,.38.38v4.11L87.21,202a.38.38,0,0,1,.32-.18h.32a.37.37,0,0,1,.32.57l-2.1,3.38,2.49,4.9a.38.38,0,0,1-.33.54h-.29a.37.37,0,0,1-.33-.21l-2.15-4.24-.87,1.41v2.69A.38.38,0,0,1,84.22,211.29Z" transform="translate(-74.82 -201.82)"/><path class="cls-2" d="M92.78,202.83a2.52,2.52,0,0,1,.43,1.48,2.7,2.7,0,0,1-.09.71,2.42,2.42,0,0,1-.24.59,1.7,1.7,0,0,1-.34.43,1.2,1.2,0,0,1-.41.24,1.57,1.57,0,0,1,.55.2,1.4,1.4,0,0,1,.46.41,2.59,2.59,0,0,1,.36.77,3.3,3.3,0,0,1,.12.89,2.94,2.94,0,0,1-.22,1.25,1.92,1.92,0,0,1-.55.72,1.8,1.8,0,0,1-.72.34,3.55,3.55,0,0,1-.75.08H90v-8.75h1.51a1.54,1.54,0,0,1,.79.17A1.57,1.57,0,0,1,92.78,202.83Zm-2.53,3.34h1.36a1.06,1.06,0,0,0,.55-.15,1.4,1.4,0,0,0,.43-.41,2,2,0,0,0,.28-.6,2.58,2.58,0,0,0,.1-.71,2.44,2.44,0,0,0-.1-.71,2,2,0,0,0-.28-.59,1.47,1.47,0,0,0-.42-.4,1,1,0,0,0-.53-.15H90.25Zm1.13,4.52a2.41,2.41,0,0,0,1-.17A1.57,1.57,0,0,0,93,210a1.74,1.74,0,0,0,.32-.68,3.21,3.21,0,0,0,.08-.81,2.42,2.42,0,0,0-.5-1.62,1.94,1.94,0,0,0-1.49-.52H90.25v4.27Z" transform="translate(-74.82 -201.82)"/><path class="cls-2" d="M91.38,211.31H90a.38.38,0,0,1-.37-.37v-8.75a.38.38,0,0,1,.38-.37h1.51a1.87,1.87,0,0,1,1,.22,2,2,0,0,1,.6.58h0a2.9,2.9,0,0,1,.5,1.69,3.07,3.07,0,0,1-.1.81,2.81,2.81,0,0,1-.28.68,2.16,2.16,0,0,1-.29.39,1.74,1.74,0,0,1,.53.48,3,3,0,0,1,.41.89,3.68,3.68,0,0,1,.13,1,3.27,3.27,0,0,1-.26,1.41,2.3,2.3,0,0,1-.66.86,2.18,2.18,0,0,1-.87.4A4,4,0,0,1,91.38,211.31Zm-.75-1h.75a2.05,2.05,0,0,0,.83-.14,1.2,1.2,0,0,0,.47-.35,1.38,1.38,0,0,0,.25-.54,2.87,2.87,0,0,0,.07-.72,2.09,2.09,0,0,0-.4-1.38,1.6,1.6,0,0,0-1.22-.4h-.75Zm0-4.52h1a.68.68,0,0,0,.36-.1,1,1,0,0,0,.32-.3,1.63,1.63,0,0,0,.22-.48,2.21,2.21,0,0,0,.08-.61,2.08,2.08,0,0,0-.09-.6,1.65,1.65,0,0,0-.23-.48,1.1,1.1,0,0,0-.31-.3.6.6,0,0,0-.33-.09h-1Z" transform="translate(-74.82 -201.82)"/><path class="cls-1" d="M98.72,206.68l-3.11,3.07-.18-.18,3-3-3-3,.18-.18,3.12,3.12Z" transform="translate(-74.82 -201.82)"/><path class="cls-1" d="M95.62,210.13a.37.37,0,0,1-.27-.11l-.18-.18a.37.37,0,0,1,0-.53l2.74-2.72-2.76-2.76a.37.37,0,0,1,0-.53l.18-.18a.39.39,0,0,1,.53,0L99,206.23a.37.37,0,0,1,.11.27v.18a.37.37,0,0,1-.11.27L95.88,210A.37.37,0,0,1,95.62,210.13Z" transform="translate(-74.82 -201.82)"/></svg>