<?xml version="1.0" standalone="no"?>
<!DOCTYPE svg PUBLIC "-//W3C//DTD SVG 20010904//EN"
 "http://www.w3.org/TR/2001/REC-SVG-20010904/DTD/svg10.dtd">
<svg version="1.0" xmlns="http://www.w3.org/2000/svg"
 width="320.000000pt" height="320.000000pt" viewBox="0 0 320.000000 320.000000"
 preserveAspectRatio="xMidYMid meet">
<metadata>
Created by potrace 1.11, written by Peter Selinger 2001-2013
</metadata>
<g transform="translate(0.000000,320.000000) scale(0.100000,-0.100000)"
fill="#000000" stroke="none">
<path d="M0 1600 l0 -1600 1600 0 1600 0 0 1600 0 1600 -1600 0 -1600 0 0
-1600z m840 468 c34 -134 83 -323 108 -421 25 -97 48 -175 51 -171 3 3 54 191
112 417 l106 412 291 3 292 2 0 -715 0 -715 -180 0 -180 0 -2 539 -3 540 -119
-467 c-66 -257 -128 -500 -139 -540 l-19 -72 -162 0 -161 0 -134 528 c-74 290
-138 534 -142 542 -5 8 -9 -229 -9 -527 l0 -543 -180 0 -180 0 0 715 0 715
294 0 293 0 63 -242z m1480 -293 l0 -535 345 0 345 0 0 -180 0 -180 -565 0
-565 0 0 715 0 715 220 0 220 0 0 -535z"/>
</g>
</svg>
