<?xml version="1.0" standalone="no"?>
<!DOCTYPE svg PUBLIC "-//W3C//DTD SVG 20010904//EN"
 "http://www.w3.org/TR/2001/REC-SVG-20010904/DTD/svg10.dtd">
<svg version="1.0" xmlns="http://www.w3.org/2000/svg"
 width="260.000000pt" height="260.000000pt" viewBox="0 0 260.000000 260.000000"
 preserveAspectRatio="xMidYMid meet">
<metadata>
Created by potrace 1.11, written by Peter Selinger 2001-2013
</metadata>
<g transform="translate(0.000000,260.000000) scale(0.100000,-0.100000)"
fill="#000000" stroke="none">
<path d="M1136 2569 c-548 -76 -975 -478 -1093 -1029 -25 -118 -25 -372 0
-490 99 -465 418 -827 858 -974 140 -47 232 -61 404 -61 172 0 264 14 404 61
440 147 759 509 858 974 13 62 18 129 18 245 0 116 -5 183 -18 245 -111 522
-497 908 -1012 1015 -96 20 -323 28 -419 14z m371 -601 c14 -14 25 -37 25 -54
1 -35 -250 -1272 -263 -1296 -16 -30 -80 -43 -130 -26 -83 28 -87 -12 60 716
124 617 131 648 157 671 37 31 114 26 151 -11z m-581 -129 c22 -23 29 -39 29
-70 0 -38 -8 -46 -215 -254 l-215 -215 213 -213 c200 -201 212 -215 212 -250
0 -51 -50 -105 -103 -114 l-39 -6 -270 271 -271 270 5 52 5 52 254 254 c173
173 264 257 284 263 39 10 75 -3 111 -40z m1146 -216 c169 -169 252 -259 259
-281 23 -70 16 -80 -259 -355 -224 -223 -263 -258 -295 -264 -33 -5 -41 -2
-77 35 -34 33 -40 46 -40 81 0 41 4 45 213 251 l212 209 -213 213 c-240 241
-249 255 -196 317 37 44 78 61 118 50 21 -6 111 -89 278 -256z"/>
</g>
</svg>
